# xmcd
#
# Track frame offsets:
# 150
# 21188
# 57328
# 101242
# 120954
# 151008
# 169617
# 184476
# 247772
# 279995
# 309758
#
# Disc length: 4365 seconds
#
# Revision: 0
# Processed by: cddbd v1.5.1PL2 Copyright (c) Steve Scherf et al.
# Submitted via: Audion 3.0.2 (http://www.panic.com/audion/)
#
DISCID=80110b0b
DTITLE=hamid zzaher - t9iti9at
DYEAR=1900
DGENRE=
TTITLE0=t9iti9at-11
TTITLE1=t9iti9at-01
TTITLE2=t9iti9at-02
TTITLE3=t9iti9at-03
TTITLE4=t9iti9at-04
TTITLE5=t9iti9at-05
TTITLE6=t9iti9at-06
TTITLE7=t9iti9at-07
TTITLE8=t9iti9at-08
TTITLE9=t9iti9at-09
TTITLE10=t9iti9at-10
EXTD=
EXTT0=
EXTT1=
EXTT2=
EXTT3=
EXTT4=
EXTT5=
EXTT6=
EXTT7=
EXTT8=
EXTT9=
EXTT10=
PLAYORDER=
